<?xml version="1.0" encoding="utf-8"?>
<!-- Generator: Adobe Illustrator 19.1.0, SVG Export Plug-In . SVG Version: 6.00 Build 0)  -->
<svg version="1.1" id="Layer_1" xmlns="http://www.w3.org/2000/svg" xmlns:xlink="http://www.w3.org/1999/xlink" x="0px" y="0px"
	 viewBox="-295 460.5 81.6 81.6" style="enable-background:new -295 460.5 81.6 81.6;" xml:space="preserve">
<style type="text/css">
	.st0{fill:#36609F;}
</style>
<path class="st0" d="M-254.2,460.5c-22.5,0-40.8,18.3-40.8,40.8c0,22.6,18.3,40.8,40.8,40.8c22.6,0,40.8-18.3,40.8-40.8
	C-213.3,478.8-231.6,460.5-254.2,460.5z M-245.4,501.4h-5.7c0,9.1,0,20.4,0,20.4h-8.5c0,0,0-11.1,0-20.4h-4v-7.2h4v-4.7
	c0-3.3,1.6-8.6,8.6-8.6h6.3v7c0,0-3.8,0-4.6,0c-0.7,0-1.8,0.4-1.8,2v4.2h6.5L-245.4,501.4z"/>
</svg>
