<?xml version="1.0" encoding="utf-8"?>
<!-- Generator: Adobe Illustrator 19.1.0, SVG Export Plug-In . SVG Version: 6.00 Build 0)  -->
<svg version="1.1" id="Layer_1" xmlns="http://www.w3.org/2000/svg" xmlns:xlink="http://www.w3.org/1999/xlink" x="0px" y="0px"
	 viewBox="-295 460.5 81.6 81.6" style="enable-background:new -295 460.5 81.6 81.6;" xml:space="preserve">
<style type="text/css">
	.st0{fill:#0A6C9B;}
</style>
<g>
	<path class="st0" d="M-251.8,498.3L-251.8,498.3L-251.8,498.3L-251.8,498.3z"/>
	<path class="st0" d="M-254.2,460.5c-22.6,0-40.8,18.3-40.8,40.8c0,22.6,18.3,40.8,40.8,40.8c22.6,0,40.8-18.3,40.8-40.8
		C-213.4,478.8-231.7,460.5-254.2,460.5z M-265.4,520.8h-8.8v-26.4h8.8V520.8z M-269.8,490.9L-269.8,490.9c-3,0-4.9-2-4.9-4.6
		s2-4.6,5-4.6s4.8,2,4.9,4.6C-264.8,488.9-266.7,490.9-269.8,490.9z M-233.8,520.8h-8.8v-14.1c0-3.5-1.3-6-4.4-6
		c-2.4,0-3.9,1.6-4.5,3.2c-0.2,0.6-0.3,1.3-0.3,2.1v14.7h-8.8c0,0,0.1-23.9,0-26.3h8.8v3.7c1.2-1.8,3.2-4.3,7.9-4.3
		c5.8,0,10.1,3.8,10.1,11.9C-233.8,505.8-233.8,520.8-233.8,520.8z"/>
</g>
</svg>
