<?xml version="1.0" encoding="utf-8"?>
<!-- Generator: Adobe Illustrator 19.1.0, SVG Export Plug-In . SVG Version: 6.00 Build 0)  -->
<svg version="1.1" id="Layer_1" xmlns="http://www.w3.org/2000/svg" xmlns:xlink="http://www.w3.org/1999/xlink" x="0px" y="0px"
	 viewBox="-295 460.5 81.6 81.6" style="enable-background:new -295 460.5 81.6 81.6;" xml:space="preserve">
<style type="text/css">
	.st0{fill:#2CAAE1;}
</style>
<path class="st0" d="M-254.2,460.5c-22.6,0-40.8,18.3-40.8,40.8c0,22.6,18.3,40.8,40.8,40.8c22.6,0,40.8-18.3,40.8-40.8
	C-213.4,478.8-231.7,460.5-254.2,460.5z M-238,493c0,0.4,0,0.7,0,1.1c0,11.1-8.4,23.8-23.8,23.8c-4.7,0-9.1-1.4-12.8-3.8
	c0.7,0.1,1.3,0.1,2,0.1c3.9,0,7.5-1.3,10.4-3.6c-3.7-0.1-6.8-2.5-7.8-5.8c0.5,0.1,1,0.1,1.6,0.1c0.8,0,1.5-0.1,2.2-0.3
	c-3.8-0.8-6.7-4.2-6.7-8.2v-0.1c1.1,0.6,2.4,1,3.8,1c-2.2-1.5-3.7-4.1-3.7-7c0-1.5,0.4-3,1.1-4.2c4.1,5.1,10.3,8.4,17.3,8.8
	c-0.1-0.6-0.2-1.3-0.2-1.9c0-4.6,3.8-8.4,8.4-8.4c2.4,0,4.6,1,6.1,2.6c1.9-0.4,3.7-1.1,5.3-2c-0.6,2-2,3.6-3.7,4.6
	c1.7-0.2,3.3-0.7,4.8-1.3C-234.9,490.4-236.4,491.8-238,493z"/>
</svg>
